<svg width="100" height="100%" viewBox="0 0 410 126" fill="none" xmlns="http://www.w3.org/2000/svg">
<g clip-path="url(#clip0_26_28)">
<path d="M155.589 75.4137L163.449 66.1474L156.281 57.9168C155.312 56.7706 154.841 55.7349 154.841 54.6025C154.841 52.1443 156.682 50.5977 158.855 50.5977C160.571 50.5977 161.775 51.3986 162.923 52.8348L168.597 60.3888L174.382 52.8348C175.42 51.5781 176.624 50.5977 178.16 50.5977C180.457 50.5977 182.228 52.1996 182.228 54.3677C182.228 55.5692 181.716 56.4806 181.024 57.3368L173.565 66.0369L181.246 74.8475C182.214 75.9938 182.685 77.0157 182.685 78.1619C182.685 80.62 180.844 82.1667 178.672 82.1667C176.956 82.1667 175.752 81.3657 174.603 79.9295L168.417 71.8094L162.231 79.9295C161.193 81.1862 159.989 82.1667 158.453 82.1667C156.156 82.1667 154.385 80.5648 154.385 78.3966C154.385 77.1952 154.841 76.2838 155.589 75.4276V75.4137Z" fill="#E6E4DE"/>
<path d="M203.539 82.389C194.309 82.389 187.486 75.9261 187.486 66.5355V66.425C187.486 57.6696 193.741 50.4609 202.681 50.4609C212.95 50.4609 217.475 58.8711 217.475 65.2235C217.475 67.7369 215.704 69.3941 213.406 69.3941H196.149C197.007 73.3437 199.761 75.4013 203.664 75.4013C206.072 75.4013 208.078 74.6556 209.85 73.3437C210.486 72.8879 211.054 72.6532 211.967 72.6532C213.918 72.6532 215.344 74.1446 215.344 76.0918C215.344 77.238 214.832 78.0942 214.195 78.6604C211.497 80.9528 208.009 82.3752 203.525 82.3752L203.539 82.389ZM209.158 63.9669C208.646 60.0725 206.349 57.4487 202.681 57.4487C199.014 57.4487 196.717 60.0173 196.025 63.9669H209.158Z" fill="#E6E4DE"/>
<path d="M225.004 55.0454C225.004 52.6425 226.955 50.6953 229.363 50.6953C231.771 50.6953 233.722 52.6425 233.722 55.0454V56.4264C234.982 53.4573 237.044 50.7091 239.631 50.7091C242.219 50.7091 243.88 52.4768 243.88 54.9487C243.88 57.2411 242.385 58.6083 240.614 59.0088C236.199 60.0445 233.736 63.4141 233.736 69.587V77.7072C233.736 80.11 231.785 82.0572 229.377 82.0572C226.969 82.0572 225.018 80.11 225.018 77.7072V55.0454H225.004Z" fill="#E6E4DE"/>
<path d="M249.664 43.9438C249.664 41.5409 251.615 39.5938 254.023 39.5938C256.431 39.5938 258.382 41.5409 258.382 43.9438V55.4473C260.5 52.5887 263.434 50.4758 267.959 50.4758C275.127 50.4758 281.95 56.0826 281.95 66.3294V66.4399C281.95 76.6867 275.238 82.2934 267.959 82.2934C263.309 82.2934 260.444 80.1806 258.382 77.7224V77.7777C258.382 80.1253 256.431 82.0725 254.023 82.0725C251.615 82.0725 249.664 80.1253 249.664 77.7224V43.9714V43.9438ZM273.231 66.4261V66.3156C273.231 61.2198 269.786 57.8502 265.717 57.8502C261.648 57.8502 258.258 61.2198 258.258 66.3156V66.4261C258.258 71.5219 261.635 74.8914 265.717 74.8914C269.799 74.8914 273.231 71.5771 273.231 66.4261Z" fill="#E6E4DE"/>
<path d="M304.065 82.389C294.834 82.389 288.012 75.9261 288.012 66.5355V66.425C288.012 57.6696 294.267 50.4609 303.207 50.4609C313.475 50.4609 318 58.8711 318 65.2235C318 67.7369 316.229 69.3941 313.932 69.3941H296.675C297.533 73.3437 300.287 75.4013 304.189 75.4013C306.597 75.4013 308.604 74.6556 310.375 73.3437C311.012 72.8879 311.579 72.6532 312.492 72.6532C314.444 72.6532 315.869 74.1446 315.869 76.0918C315.869 77.238 315.357 78.0942 314.72 78.6604C312.022 80.9528 308.535 82.3752 304.051 82.3752L304.065 82.389ZM309.683 63.9669C309.171 60.0725 306.874 57.4487 303.207 57.4487C299.539 57.4487 297.242 60.0173 296.55 63.9669H309.683Z" fill="#E6E4DE"/>
<path d="M325.529 55.0454C325.529 52.6425 327.481 50.6953 329.889 50.6953C332.296 50.6953 334.248 52.6425 334.248 55.0454V56.4264C335.507 53.4573 337.569 50.7091 340.157 50.7091C342.745 50.7091 344.405 52.4768 344.405 54.9487C344.405 57.2411 342.911 58.6083 341.139 59.0088C336.725 60.0445 334.262 63.4141 334.262 69.587V77.7072C334.262 80.11 332.31 82.0572 329.902 82.0572C327.494 82.0572 325.543 80.11 325.543 77.7072V55.0454H325.529Z" fill="#E6E4DE"/>
<path d="M378.24 77.6954C378.24 80.0983 376.289 82.0455 373.881 82.0455C371.473 82.0455 369.521 80.0983 369.521 77.6954V77.3502C367.515 79.9188 364.941 82.2664 360.526 82.2664C353.939 82.2664 350.092 77.9164 350.092 70.8872V55.0337C350.092 52.6308 352.043 50.6836 354.451 50.6836C356.859 50.6836 358.81 52.6308 358.81 55.0337V68.1391C358.81 72.2544 360.761 74.3811 364.083 74.3811C367.404 74.3811 369.535 72.2682 369.535 68.1391V55.0337C369.535 52.6308 371.486 50.6836 373.894 50.6836C376.302 50.6836 378.254 52.6308 378.254 55.0337V77.6954H378.24Z" fill="#E6E4DE"/>
<path d="M386.668 78.7854C385.755 78.2192 385.008 77.1835 385.008 75.8163C385.008 73.8691 386.502 72.3777 388.454 72.3777C389.09 72.3777 389.713 72.5434 390.17 72.8334C393.09 74.6701 396.023 75.5816 398.487 75.5816C400.95 75.5816 402.154 74.6701 402.154 73.2891V73.1787C402.154 71.2867 399.179 70.6653 395.788 69.6296C391.484 68.3729 386.613 66.3705 386.613 60.4185V60.308C386.613 54.066 391.664 50.5859 397.85 50.5859C401.061 50.5859 404.382 51.4421 407.371 52.9336C408.631 53.5688 409.433 54.7012 409.433 56.1927C409.433 58.1399 407.883 59.6313 405.932 59.6313C405.295 59.6313 404.894 59.5208 404.327 59.2308C401.863 58.0294 399.511 57.2837 397.67 57.2837C395.553 57.2837 394.46 58.1951 394.46 59.3965V59.507C394.46 61.2194 397.38 62.0204 400.715 63.1666C405.019 64.6028 410.001 66.6605 410.001 72.2672V72.3777C410.001 79.1859 404.894 82.2793 398.251 82.2793C394.474 82.2793 390.391 81.1883 386.668 78.7854Z" fill="#E6E4DE"/>
</g>
<path d="M0 112.031C0 112.517 0.0173746 112.986 0.0694981 113.456C0.781853 120.492 6.70656 126 13.917 126C20.0328 126 25.2278 122.039 27.0869 116.548L28.4595 111.023L32.612 79.3494C32.612 71.6351 38.8494 65.3803 46.529 65.3803C53.0792 65.3803 58.5695 69.915 60.0463 76.0309L60.8456 81.3649L65.7278 115.819L66.0232 116.757C67.9517 122.143 73.0946 126 79.1236 126H111.736C119.415 126 125.653 119.745 125.653 112.031V79.3494C125.653 71.6351 119.415 65.3803 111.736 65.3803C108.4 65.3803 105.342 66.5618 102.944 68.5251L100.79 70.7317L89.4093 88.7664L87.6197 90.417C85.5695 91.9981 83.0502 93.0232 80.3224 93.2664L79.1409 93.3185C71.4614 93.3185 65.2239 87.0637 65.2239 79.3494C65.2239 72.5907 70.0019 66.9614 76.3436 65.6583L77.5946 65.3803L112.622 60.6371L114.203 60.4286C120.736 59.2819 125.687 53.5483 125.687 46.668V13.9865C125.687 13.8475 125.687 13.6911 125.687 13.5521C125.479 6.60232 120.197 0.920849 113.438 0.104247L79.1583 0C72.2954 0 66.5965 4.98649 65.4498 11.5367L60.6544 46.112L60.3938 48.0753C59.7336 54.5212 54.7297 59.6815 48.3533 60.4981L46.5463 60.6197C38.8668 60.6197 32.6293 54.3649 32.6293 46.6506C32.6293 41.3687 35.5483 36.7819 39.8398 34.4015L41.7683 33.1853L55.4247 24.7066L57.2664 22.8475C59.2471 20.4324 60.4459 17.3398 60.4459 13.9691C60.4459 6.25483 54.2085 0 46.529 0H45.9382L14.9942 0.0521236L13.917 0.0173745C6.23745 0.0173745 0 6.2722 0 13.9865C0 18.8166 2.43243 23.056 6.13321 25.5753L7.31467 26.305L21.1274 34.7317C25.1409 37.1815 27.8166 41.612 27.8166 46.6853C27.8166 50.1429 26.5656 53.305 24.4981 55.7548L10.7722 64.8764L7.31467 67.083L6.56757 67.5174C3.28378 69.5676 0.920849 72.9556 0.225869 76.8996L0.0173745 110.571V112.048" fill="url(#paint0_linear_26_28)"/>
<defs>
<linearGradient id="paint0_linear_26_28" x1="0" y1="63.0174" x2="125.705" y2="63.0174" gradientUnits="userSpaceOnUse">
<stop offset="0.12" stop-color="#0CC2AC"/>
<stop offset="1" stop-color="#0075C7"/>
</linearGradient>
<clipPath id="clip0_26_28">
<rect width="410" height="126" fill="white"/>
</clipPath>
</defs>
</svg>
